#!OML:ASF E:\Style4\Style4.ASF
:FULLY-SPECIFIED
:DEGREES
1201
root 0.277881 17.4323 -1.39665 7.36989 1.10329 5.87717
lowerback 4.6186 2.22177 0.255569
upperback -0.126157 2.94798 -1.00546
thorax -2.65061 1.45935 -1.37658
lowerneck 2.97165 -4.28068 -7.54525
upperneck 5.89854 -6.06647 5.52367
head 1.81291 -3.10943 3.05952
rclavicle 5.06901e-015 2.78299e-014
rhumerus -93.0695 57.4249 -129.359
rradius 86.8892
rwrist 1.25851
rhand -12.7889 37.5697
rfingers 7.12502
rthumb 13.2966 8.0139
lclavicle 5.06901e-015 2.78299e-014
lhumerus -38.3915 21.1256 22.0442
lradius 114.866
lwrist -13.5693
lhand -10.9227 35.9026
lfingers 7.12502
lthumb 15.095 65.3322
rfemur -24.5011 -2.16851 10.5937
rtibia 43.8183
rfoot -24.1153 -14.5591
rtoes -13.2478
lfemur -21.1192 -0.269313 -26.3913
ltibia 37.2386
lfoot -22.1895 4.54191
ltoes -13.1092
1202
root 0.296257 17.4431 -1.39379 7.28152 0.941565 5.95992
lowerback 4.6627 2.18488 0.36007
upperback -0.153557 2.9075 -0.885392
thorax -2.70556 1.43797 -1.3117
lowerneck 2.96916 -4.2926 -7.70276
upperneck 5.92601 -6.09812 5.78068
head 1.84197 -3.12572 3.17697
rclavicle -1.12313e-014 9.54166e-015
rhumerus -93.0812 57.5055 -129.21
rradius 86.9573
rwrist 1.107
rhand -12.5375 37.6966
rfingers 7.12502
rthumb 13.539 8.15681
lclavicle -1.12313e-014 9.54166e-015
lhumerus -38.3915 21.0998 22.0367
lradius 114.799
lwrist -13.5444
lhand -10.8422 35.8216
lfingers 7.12502
lthumb 15.1725 65.2453
rfemur -24.2924 -2.07614 10.4157
rtibia 43.6298
rfoot -24.1714 -14.3539
rtoes -12.8473
lfemur -20.7939 -0.220097 -26.5558
ltibia 36.8635
lfoot -22.0866 4.62245
ltoes -12.9166
1203
root 0.31341 17.4524 -1.38869 7.20499 0.705423 6.09816
lowerback 4.64644 2.20777 0.433323
upperback -0.17727 2.94402 -0.810788
thorax -2.72022 1.45543 -1.2784
lowerneck 2.94003 -4.35012 -7.82399
upperneck 6.00794 -6.18876 6.00973
head 1.89605 -3.17079 3.27638
rclavicle 3.0911e-014 3.18055e-015
rhumerus -93.016 57.4277 -128.985
rradius 86.9753
rwrist 1.32117
rhand -12.8202 37.757
rfingers 7.12502
rthumb 13.2665 8.19921
lclavicle 3.0911e-014 3.18055e-015
lhumerus -38.2517 21.0204 22.1349
lradius 114.71
lwrist -13.5488
lhand -10.7041 35.7399
lfingers 7.12502
lthumb 15.3055 65.1536
rfemur -24.1303 -1.91607 10.1756
rtibia 43.4792
rfoot -24.203 -14.1755
rtoes -12.4988
lfemur -20.4599 -0.0865758 -26.7922
ltibia 36.4674
lfoot -21.9242 4.74881
ltoes -13.2857
1204
root 0.329595 17.4625 -1.38192 7.13115 0.409919 6.25362
lowerback 4.60034 2.2383 0.486641
upperback -0.177878 2.98866 -0.772534
thorax -2.69325 1.47739 -1.26979
lowerneck 2.86998 -4.40825 -7.81302
upperneck 6.05739 -6.27048 6.15024
head 1.93707 -3.20873 3.31957
rclavicle -8.64713e-015 1.59028e-015
rhumerus -92.9615 57.3323 -128.841
rradius 87.0061
rwrist 1.57516
rhand -13.3513 37.679
rfingers 7.12502
rthumb 12.7545 8.08858
lclavicle -8.64713e-015 1.59028e-015
lhumerus -38.0968 20.9755 22.1913
lradius 114.609
lwrist -13.6144
lhand -10.6834 35.8054
lfingers 7.12502
lthumb 15.3255 65.2176
rfemur -24.0327 -1.67964 9.9097
rtibia 43.3393
rfoot -24.0546 -14.2047
rtoes -12.6835
lfemur -20.1129 0.123352 -27.0554
ltibia 36.0462
lfoot -21.7682 4.86942
ltoes -13.4828
1205
root 0.344725 17.4708 -1.37744 7.10524 0.129203 6.46541
lowerback 4.54783 2.21945 0.473328
upperback -0.200759 2.96315 -0.758263
thorax -2.6894 1.46494 -1.24431
lowerneck 2.93147 -4.41809 -7.8455
upperneck 5.92381 -6.29495 6.36353
head 1.89444 -3.21942 3.40159
rclavicle 1.75924e-014 -7.95139e-015
rhumerus -92.9967 57.3327 -128.859
rradius 87.0034
rwrist 1.87671
rhand -13.8376 37.5727
rfingers 7.12502
rthumb 12.2857 7.95362
lclavicle 1.75924e-014 -7.95139e-015
lhumerus -37.9986 20.9661 22.1633
lradius 114.489
lwrist -13.6064
lhand -10.7778 35.8974
lfingers 7.12502
lthumb 15.2345 65.3164
rfemur -24.0019 -1.47579 9.58174
rtibia 43.2087
rfoot -23.8941 -14.2037
rtoes -12.7927
lfemur -19.8318 0.236392 -27.3562
ltibia 35.6207
lfoot -21.6951 4.86603
ltoes -12.8773
1206
root 0.359136 17.4788 -1.37235 7.07216 -0.095957 6.61637
lowerback 4.48529 2.19001 0.508688
upperback -0.216026 2.92692 -0.713827
thorax -2.67144 1.44677 -1.21369
lowerneck 2.94554 -4.44943 -7.85665
upperneck 5.86678 -6.3442 6.52209
head 1.88447 -3.24236 3.45865
rclavicle 3.47873e-015 7.95139e-016
rhumerus -92.9097 57.3279 -128.701
rradius 87.071
rwrist 2.09505
rhand -13.8929 37.5404
rfingers 7.12502
rthumb 12.2324 7.91813
lclavicle 3.47873e-015 7.95139e-016
lhumerus -37.8402 20.9682 22.1735
lradius 114.395
lwrist -13.6053
lhand -10.8331 35.7037
lfingers 7.12502
lthumb 15.1812 65.1268
rfemur -23.9196 -1.34367 9.33428
rtibia 43.054
rfoot -23.8587 -14.1135
rtoes -12.9822
lfemur -19.533 0.275333 -27.5741
ltibia 35.1913
lfoot -21.651 4.80232
ltoes -11.8089
1207
root 0.371936 17.4865 -1.36676 7.00344 -0.34035 6.6935
lowerback 4.43363 2.1546 0.554079
upperback -0.214675 2.88466 -0.613296
thorax -2.64497 1.4259 -1.13083
lowerneck 2.899 -4.46548 -7.86492
upperneck 5.90994 -6.37018 6.6352
head 1.91461 -3.25359 3.49793
rclavicle 2.43511e-014 2.38542e-015
rhumerus -92.853 57.3629 -128.493
rradius 87.2689
rwrist 2.08688
rhand -13.7716 37.3783
rfingers 7.12502
rthumb 12.3493 7.76307
lclavicle 2.43511e-014 2.38542e-015
lhumerus -37.6942 20.9829 22.2362
lradius 114.319
lwrist -13.6341
lhand -10.7474 35.6998
lfingers 7.12502
lthumb 15.2638 65.1166
rfemur -23.7866 -1.20432 9.17591
rtibia 42.8861
rfoot -23.8811 -13.9559
rtoes -12.9318
lfemur -19.2346 0.387121 -27.7213
ltibia 34.8053
lfoot -21.6003 4.90935
ltoes -11.7143
1208
root 0.382665 17.4961 -1.36209 6.92934 -0.576615 6.74566
lowerback 4.41468 2.1053 0.586974
upperback -0.240783 2.82318 -0.515827
thorax -2.6659 1.39517 -1.04512
lowerneck 3.0108 -4.45915 -7.77846
upperneck 5.83409 -6.3686 6.70049
head 1.86843 -3.25178 3.50731
rclavicle -1.98785e-014 1.90833e-014
rhumerus -92.8994 57.366 -128.415
rradius 87.4256
rwrist 2.03301
rhand -13.8004 37.1882
rfingers 7.12502
rthumb 12.3215 7.5712
lclavicle -1.98785e-014 1.90833e-014
lhumerus -37.5917 20.9193 22.271
lradius 114.262
lwrist -13.6979
lhand -10.7686 35.9401
lfingers 7.12502
lthumb 15.2434 65.3585
rfemur -23.657 -1.023 9.05819
rtibia 42.7081
rfoot -23.7951 -13.9179
rtoes -12.9678
lfemur -18.9627 0.500757 -27.8288
ltibia 34.4699
lfoot -21.5888 4.97937
ltoes -11.4691
